<svg xmlns="http://www.w3.org/2000/svg" xmlns:xlink="http://www.w3.org/1999/xlink" width="500" zoomAndPan="magnify" viewBox="0 0 375 299.999988" height="400" preserveAspectRatio="xMidYMid meet" version="1.0"><defs><clipPath id="5eec92aa45"><path d="M 37.5 53.25 L 222 53.25 L 222 246.75 L 37.5 246.75 Z M 37.5 53.25 " clip-rule="nonzero"/></clipPath><clipPath id="2a0c052e60"><path d="M 229 53.25 L 337.5 53.25 L 337.5 246 L 229 246 Z M 229 53.25 " clip-rule="nonzero"/></clipPath></defs><g clip-path="url(#5eec92aa45)"><path fill="#60a5fa" d="M 94.621094 108.574219 L 94.621094 245.53125 L 37.5 245.53125 L 37.5 53.382812 L 111.972656 53.382812 C 144.628906 53.382812 170.175781 60.796875 188.675781 75.617188 C 210.605469 93.332031 221.632812 117.433594 221.632812 147.800781 C 221.632812 176.902344 212.234375 200.644531 193.496094 219.019531 C 174.757812 237.398438 150.59375 246.617188 121.011719 246.617188 C 117.515625 246.617188 111.851562 246.433594 103.960938 246.074219 L 103.960938 189.617188 L 113.117188 189.617188 C 146.4375 189.617188 163.066406 175.699219 163.066406 147.800781 C 163.066406 121.652344 146.679688 108.515625 113.960938 108.515625 L 94.621094 108.515625 Z M 94.621094 108.574219 " fill-opacity="1" fill-rule="nonzero"/></g><g clip-path="url(#2a0c052e60)"><path fill="#60a5fa" d="M 337.5 53.382812 L 286.828125 140.511719 L 337.199219 245.53125 L 273.027344 245.53125 L 229.527344 139.425781 L 278.8125 53.382812 Z M 337.5 53.382812 " fill-opacity="1" fill-rule="nonzero"/></g></svg>